<!DOCTYPE svg PUBLIC "-//W3C//DTD SVG 1.1//EN" "http://www.w3.org/Graphics/SVG/1.1/DTD/svg11.dtd">

<!-- Uploaded to: SVG Repo, www.svgrepo.com, Transformed by: SVG Repo Mixer Tools -->
<svg fill="#ffffff" version="1.1" id="Capa_1" xmlns="http://www.w3.org/2000/svg" xmlns:xlink="http://www.w3.org/1999/xlink" width="38px" height="38px" viewBox="0 0 31.385 31.385" xml:space="preserve" stroke="#ffffff">

<g id="SVGRepo_bgCarrier" stroke-width="0"/>

<g id="SVGRepo_tracerCarrier" stroke-linecap="round" stroke-linejoin="round"/>

<g id="SVGRepo_iconCarrier"> <g> <g> <path d="M13.869,28.447l12.146-1.632l3.746-15.817l-16.89-1.656l-2.419,12.694h-0.002L0.228,23.552L13.869,28.447z M13.564,10.458 l14.497,1.704l-3.154,13.325l-13.511-3.821L13.564,10.458z M12.496,26.297l-2.022,0.24l-3.348-1.278l1.613-0.214L12.496,26.297z"/> <polygon points="30.547,11.445 26.814,27.369 13.824,29.268 13.824,29.264 0,24.205 0,24.99 13.729,30.242 27.52,28.05 31.385,12.027 "/> <path d="M2.262,12.677l5.077-1.658c0.227,0.101,0.518,0.116,0.804,0.023c0.287-0.094,0.51-0.277,0.636-0.492l4.948-1.616 c0,0-2.138-6.552-2.25-6.893c-0.05-0.153-0.255-0.196-0.556-0.166l-0.234-0.722L10.57,1.146C10.528,1.144,9.572,1.092,8.44,1.46 C7.228,1.855,6.304,2.566,5.691,3.573C4.604,3.122,3.438,3.093,2.226,3.49C1.093,3.857,0.352,4.466,0.321,4.491L0.229,4.564 l0.22,0.67C0.128,5.411-0.05,5.596,0.012,5.783C0.33,6.758,2.262,12.677,2.262,12.677z M8.548,1.789 c0.846-0.275,1.603-0.302,1.884-0.301l2.186,6.696c-0.527-0.035-1.091,0.045-1.685,0.239c-1.453,0.474-2.654,1.482-3.01,1.8 L7.054,7.564l0.265,0.149L6.013,3.719C6.582,2.805,7.431,2.153,8.548,1.789z M2.333,3.818c1.115-0.365,2.186-0.34,3.184,0.063 l1.305,3.995L6.945,7.6l0.87,2.664c-0.48-0.038-2.112-0.115-3.566,0.359c-0.573,0.188-1.055,0.442-1.432,0.758L0.633,4.687 C0.859,4.519,1.483,4.095,2.333,3.818z"/> <path d="M0.959,15.967C1,16.703,1.248,21.17,1.248,21.17l3.832-0.213c0.141,0.11,0.337,0.176,0.555,0.164 c0.218-0.013,0.406-0.1,0.532-0.225l3.736-0.207c0,0-0.274-4.946-0.289-5.203c-0.006-0.116-0.141-0.183-0.356-0.218l-0.029-0.544 l-0.08-0.027c-0.027-0.009-0.683-0.222-1.536-0.175c-0.916,0.051-1.688,0.374-2.301,0.959c-0.672-0.515-1.476-0.75-2.392-0.699 c-0.854,0.047-1.48,0.332-1.508,0.344l-0.077,0.036l0.028,0.505C1.108,15.729,0.951,15.826,0.959,15.967z M7.625,14.77 c0.639-0.035,1.17,0.087,1.364,0.14l0.28,5.055c-0.358-0.124-0.767-0.172-1.214-0.146c-1.096,0.061-2.118,0.538-2.423,0.694 l-0.111-2.007l0.155,0.152l-0.168-3.016C6.073,15.112,6.782,14.817,7.625,14.77z M2.935,15.032c0.844-0.047,1.58,0.167,2.2,0.632 l0.167,3.015l0.137-0.169l0.112,2.011c-0.326-0.112-1.444-0.469-2.542-0.408c-0.434,0.023-0.814,0.112-1.136,0.261l-0.279-5.051 C1.781,15.246,2.293,15.066,2.935,15.032z"/> <path d="M24.096,9.021c0.211,0.052,0.418,0.024,0.575-0.06l3.636,0.89c0,0,1.178-4.811,1.238-5.062 c0.028-0.113-0.081-0.216-0.277-0.312l0.131-0.531l-0.069-0.049c-0.022-0.017-0.586-0.41-1.418-0.614 c-0.892-0.218-1.724-0.135-2.479,0.247c-0.492-0.688-1.193-1.147-2.084-1.365c-0.832-0.205-1.514-0.114-1.543-0.111l-0.084,0.013 L21.6,2.559c-0.263-0.015-0.44,0.031-0.474,0.168c-0.177,0.717-1.239,5.063-1.239,5.063l3.727,0.912 C23.715,8.85,23.885,8.969,24.096,9.021z M25.57,3.743c0.695-0.343,1.459-0.418,2.279-0.218c0.621,0.152,1.094,0.424,1.266,0.531 l-1.204,4.917c-0.31-0.222-0.685-0.387-1.119-0.494c-1.065-0.261-2.183-0.101-2.521-0.042l0.478-1.952l0.104,0.191L25.57,3.743z M20.717,7.208l1.203-4.914c0.201-0.018,0.744-0.04,1.367,0.114c0.82,0.201,1.463,0.621,1.92,1.246l-0.719,2.933l0.182-0.123 l-0.479,1.957c-0.28-0.204-1.246-0.871-2.313-1.132C21.457,7.185,21.066,7.159,20.717,7.208z"/> </g> </g> </g>

</svg>